<svg xmlns="http://www.w3.org/2000/svg" viewBox="0 0 712.68 782.78"><defs><style>.cls-1{fill:#d1e2ff;}.cls-2{fill:#8f8fcc;}.cls-3{fill:#7f7fb5;}.cls-4{fill:#92aaff;}.cls-5{fill:#66adf0;}.cls-6{fill:#6ce2ff;}.cls-7{fill:#c9af2a;}.cls-8{fill:#f2d233;}.cls-9{fill:#524122;}.cls-10{fill:#ccb38b;}.cls-11{fill:#ab9674;}.cls-12{font-size:82.51px;}.cls-12,.cls-14,.cls-15{fill:#fff;}.cls-12,.cls-14{font-family:MyriadPro-Regular, Myriad Pro;}.cls-13{fill:#edbb85;}.cls-14{font-size:55.77px;}.cls-16{font-size:45.08px;font-family:SegoePrint, Segoe Print;}.cls-17{fill:#e0e8ff;}.cls-18{fill:#457aa3;}.cls-19{fill:#757575;}.cls-20{fill:#f2d6a5;}</style></defs><g id="Layer_2" data-name="Layer 2"><g id="Layer_3" data-name="Layer 3"><path class="cls-1" d="M707.84,597.44c-32.67,129.84-234,203.75-394.61,181.38C172.26,759.17-8.57,658.41.31,533.18c8.4-118.46,64.4-93.46,107.4-221.46q3.35-9.95,6.53-19.37,1.55-4.59,3.07-9.05c10.3-30.37,19.41-56.64,27.6-79.43C200,50.45,213.35,54.53,267.4,26.53,328-4.88,424.27-14.72,474.45,32.42c22.47,21.11,29.4,47.73,30.69,77.44q.19,4.24.22,8.58c.12,12-.5,24.54-1.25,37.34-.57,9.8-1.21,19.78-1.65,29.87-.13,3-.24,6-.32,9,0,.13,0,.26,0,.39-1.24,44.63,3.2,91,37,133.25,48.17,60.16,102.68,45.61,144.56,118.74C685.77,450.59,726.39,523.67,707.84,597.44Z"/></g><g id="Layer_2-2" data-name="Layer 2"><path class="cls-2" d="M141.71,614.72c27.3,24.63,2.25,56.95,27,75,17.13,12.49,41.13-2.38,74-11,69.58-18.25,96,13.22,180,18,101,5.75,209.39-31.4,213-69,1.69-17.54-19.55-33.78-29-41-35.46-27.12-79.78-23.8-94-23-155.72,8.79-244.31-83.6-381-28-41.32,16.81-70,40.92-70,50C61.71,634.72,115.36,590.94,141.71,614.72Z"/><path class="cls-3" d="M470.1,593.39c-16.32-11-3.59-28.22-18.21-36.06-10.12-5.42-23,3.09-41.06,8.89-38.28,12.29-54.39-2.14-101.7-.64-56.88,1.8-116.15,25.28-116.64,44.15-.23,8.81,12.35,15.9,17.94,19.06,21,11.85,45.73,8.16,53.67,7.1,87-11.56,140.45,30.3,214.84-3.66,22.49-10.27,37.59-23.59,37.22-28.1C514.15,579.75,485.85,604,470.1,593.39Z"/></g><g id="Layer_4" data-name="Layer 4"><path d="M543.14,511.92S635.4,422.53,638,451.06,543.14,511.92,543.14,511.92Z"/><path d="M501.62,595.48s54.9-53.21,56.45-36.23S501.62,595.48,501.62,595.48Z"/><path d="M550.27,497.85s-19.69-81.44-2.85-74.39S550.27,497.85,550.27,497.85Z"/><path d="M532.07,540.8S513,460.65,524,467.57,532.07,540.8,532.07,540.8Z"/><path d="M527.19,543.27s59.08-28.18,60.63-20.3S527.19,543.27,527.19,543.27Z"/><path d="M506.75,525.4c-14.93-33.45,9.58,43.26,9.58,43.26Z"/><path d="M492.14,611.72,563.05,471.9s11.89-15.51,2.5,3.49S492.14,611.72,492.14,611.72Z"/><path d="M184.7,517.68s-64.14-66.33-65.95-45.16S184.7,517.68,184.7,517.68Z"/><path d="M213.56,579.67s-38.17-39.48-39.25-26.88S213.56,579.67,213.56,579.67Z"/><path d="M179.74,507.23s13.68-60.42,2-55.19S179.74,507.23,179.74,507.23Z"/><path d="M192.39,539.1s13.28-59.47,5.61-54.34S192.39,539.1,192.39,539.1Z"/><path d="M195.78,540.94S154.71,520,153.63,525.87,195.78,540.94,195.78,540.94Z"/><path d="M210,527.67c10.38-24.81-6.65,32.1-6.65,32.1Z"/><path d="M220.14,591.72,170.85,488s-8.26-11.51-1.73,2.59S220.14,591.72,220.14,591.72Z"/></g><g id="Layer_1-2" data-name="Layer 1"><polygon class="cls-4" points="197.72 452.72 216.72 617.72 496.71 617.72 518.22 452.72 197.72 452.72"/><polygon class="cls-5" points="180.72 473.72 536.29 473.72 530.72 433.72 186.52 441.3 180.72 441.43 180.72 473.72"/><polygon class="cls-6" points="252.72 384.72 483.71 379.72 530.72 433.72 180.72 441.43 252.72 384.72"/><circle class="cls-7" cx="385.25" cy="254.59" r="35.12"/><circle class="cls-8" cx="386.21" cy="253.21" r="33.51"/><polygon class="cls-9" points="299.43 410.57 431.71 405.39 439.69 410.57 278.71 418.72 299.43 410.57"/><circle class="cls-7" cx="309.23" cy="363.92" r="50.48"/><path class="cls-10" d="M251.31,271.16l9.89,13.53c4,5.47,3.7,13.23-.66,17.6l-16.83,16.87a10,10,0,0,1-4.47,2.61l-17.56,4.68c-4.91,1.31-10.23-1.39-12.93-6.57l-4.36-8.37a14.3,14.3,0,0,1-.25-12.95l12.68-24.63a10.26,10.26,0,0,1,7.78-5.68l16.18-2.08A11.44,11.44,0,0,1,251.31,271.16Z"/><path class="cls-11" d="M232.39,273.15l5.85,8.18c2.36,3.3,2.23,8-.31,10.58L228.16,302a5.66,5.66,0,0,1-2.61,1.55l-10.26,2.73c-2.87.77-6-.88-7.6-4l-2.59-5.05a8.8,8.8,0,0,1-.21-7.79l7.32-14.75a5.9,5.9,0,0,1,4.53-3.38l9.46-1.17A6.72,6.72,0,0,1,232.39,273.15Z"/><ellipse class="cls-8" cx="308.08" cy="362.66" rx="48.63" ry="49.06"/><text class="cls-12" transform="translate(307.84 395.6) rotate(-35.34)">$</text><path class="cls-13" d="M343.53,321.51C332.51,319.41,274,284,274,284s-36.45-11.26-46.47-6.15c-22.34,11.4-23,16.45-23.41,26.49-.49,12.89,10,27.79,21.14,34.22,10,5.78,24.63,15.76,29.75,23.8,3.77,5.92,7.34,23.37,6.51,27.32-2.95,14-30.06-17-46.82-22-11-3.27-39.63-23.28-39.63-23.28l-49.85-46.29-11-5.81c11.58-34.24,21.68-63.46,30.67-88.48l15.31,6A159.54,159.54,0,0,0,191.84,219c13.56,2.32,26.66,8.14,39.79,11.57,12.55,3.28,39.88,20.9,55.93,29.6,8.29,4.5,38.18,24.16,55.87,42,.2.2.39.41.59.6C347.32,306.1,360.23,324.69,343.53,321.51Z"/><path class="cls-13" d="M505.71,109.72l-.35,8.72-.65,16.28-.6,21.06c-.57,9.8-1.21,19.78-1.65,29.87-.13,3-.24,6-.32,9,0,.13,0,.26,0,.39l-5.45,4.26-29,38.93s-16.87,17.18-23.54,20.29c-10.14,4.73-25.67,30.54-28,19.6-.66-3.07.87-17,3-21.86,2.85-6.58,11.47-15.17,17.43-20.21,6.65-5.62,12.52-17.87,11.73-28-.62-7.9-1.24-11.85-15.44-19.75-6.37-3.55-28.4,7.11-28.4,7.11s-34.71,30.76-41.43,33c-10.17,3.32-2.92-12-1-14.77.12-.16.23-.34.35-.5,10.22-14.95,20.43-34.43,25.37-38.38,9.56-7.65,25.39-24.8,33-28,8-3.35,24.73-16.51,33-19,10.5-3.16,24-11,24-11l27.43-6.86Z"/><text class="cls-14" transform="translate(370.37 268.41) rotate(11.8)">$</text><rect class="cls-15" x="242.71" y="505.72" width="224" height="70"/><text class="cls-16" transform="translate(274.72 555.4)">Donate</text><rect class="cls-17" x="437.71" y="505.72" width="41" height="11" transform="translate(460.09 -175.3) rotate(42.03)"/><rect class="cls-17" x="229.71" y="560.72" width="41" height="11" transform="translate(443.42 -21.9) rotate(42.03)"/><polygon class="cls-18" points="200.13 473.72 515.48 473.72 513.92 485.7 200.57 477.5 200.13 473.72"/><polygon class="cls-19" points="467.71 576.72 466.71 505.72 466.71 575.72 242.72 575.72 467.71 576.72"/><path class="cls-20" d="M334.27,302.08l1.94,5.85a1.29,1.29,0,0,0,.39.51L350.11,319c1.08.85.26-6.92-.4-8.11l-7.58-11.3a1.23,1.23,0,0,0-.48-.48l-3.9-.94C336.72,297.61,333.83,301,334.27,302.08Z"/><path class="cls-20" d="M370.69,209.47l-1.33,5.95a1.21,1.21,0,0,1-.3.53l-10.79,11.41c-.86.91-.58-6.9-.09-8.12L364,207.5a1.26,1.26,0,0,1,.38-.52l3.22-1.17C368.4,205.16,371,208.35,370.69,209.47Z"/><path class="cls-20" d="M237.24,374.83l1.43-4a2.4,2.4,0,0,1,2.11-1.58l8.89-.55a2.39,2.39,0,0,1,2.37,1.51l6.76,17.24a2.39,2.39,0,0,1-.78,2.78h0a2.39,2.39,0,0,1-2.87,0l-17.08-12.67A2.37,2.37,0,0,1,237.24,374.83Z"/><path class="cls-20" d="M436.07,261.09l-1.32-3.92a1.91,1.91,0,0,0-1.72-1.45h-7a2,2,0,0,0-1.79,1.66L419.81,275a2.74,2.74,0,0,0,.74,2.72h0a1.56,1.56,0,0,0,2.25-.16l12.75-13.7A2.87,2.87,0,0,0,436.07,261.09Z"/><path class="cls-10" d="M214.71,367.73c-11-3.27-39.63-23.28-39.63-23.28l-49.85-46.29-11-5.81q1.55-4.59,3.07-9.05l26.13,11.78,25.92,34.5Z"/><path class="cls-10" d="M502.46,185.65c-.13,3-.24,6-.32,9l-4.91,3.69L466.7,237.78S449.25,255,442.58,257.86l27.73-32.56,16-29.19Z"/><polygon class="cls-20" points="442.58 133.42 492.14 123.43 505.37 118.46 505.71 109.72 442.58 133.42"/><path class="cls-20" d="M144.82,203.83c2.06.87,43.21,14.41,43.21,14.41l46.49,13.2-65.39-7.07-29.34-7.69Z"/><circle class="cls-15" cx="284.71" cy="70.72" r="10"/><circle class="cls-15" cx="483.71" cy="299.72" r="10"/><circle class="cls-15" cx="154.21" cy="372.22" r="12.5"/></g></g></svg>