<svg width="185" height="185" viewBox="0 0 185 185" fill="none" xmlns="http://www.w3.org/2000/svg">
<rect width="185" height="185" rx="28" fill="#EEA81F"/>
<rect x="68.8379" y="122.616" width="51.6279" height="40.8721" fill="white"/>
<path d="M125.707 16.6021H59.2972C51.4406 16.6021 45.0664 22.9762 45.0664 30.8328V154.166C45.0664 162.023 51.4406 168.397 59.2972 168.397H125.707C133.564 168.397 139.938 162.023 139.938 154.166V30.8328C139.938 22.9762 133.564 16.6021 125.707 16.6021ZM92.5023 158.91C87.2547 158.91 83.0151 154.67 83.0151 149.423C83.0151 144.175 87.2547 139.935 92.5023 139.935C97.7499 139.935 101.989 144.175 101.989 149.423C101.989 154.67 97.7499 158.91 92.5023 158.91Z" fill="black"/>
<path d="M98.1504 96.1138L98.1504 107.408C98.1504 110.526 100.679 113.055 103.797 113.055L115.092 113.055C118.21 113.055 120.739 110.526 120.739 107.408L120.739 96.1138C120.739 92.9955 118.21 90.4667 115.092 90.4667L103.797 90.4667C100.679 90.4667 98.1504 92.9955 98.1504 96.1138ZM98.1504 67.8781L98.1504 79.1724C98.1504 82.2907 100.679 84.8195 103.797 84.8195L115.092 84.8195C118.21 84.8195 120.739 82.2907 120.739 79.1724L120.739 67.8781C120.739 64.7599 118.21 62.231 115.092 62.231L103.797 62.231C100.679 62.231 98.1504 64.7599 98.1504 67.8781ZM98.1504 39.6425L98.1504 50.9367C98.1504 54.055 100.679 56.5839 103.797 56.5839L115.092 56.5839C118.21 56.5839 120.739 54.055 120.739 50.9367L120.739 39.6425C120.739 36.5242 118.21 33.9953 115.092 33.9953L103.797 33.9953C100.679 33.9953 98.1504 36.5242 98.1504 39.6425ZM64.2676 96.1138L64.2676 107.408C64.2676 110.526 66.7964 113.055 69.9147 113.055L81.209 113.055C84.3272 113.055 86.8561 110.526 86.8561 107.408L86.8561 96.1138C86.8561 92.9955 84.3272 90.4667 81.209 90.4667L69.9147 90.4667C66.7964 90.4667 64.2676 92.9955 64.2676 96.1138ZM64.2676 67.8781L64.2676 79.1724C64.2676 82.2907 66.7964 84.8195 69.9147 84.8195L81.209 84.8195C84.3272 84.8195 86.8561 82.2907 86.8561 79.1724L86.8561 67.8781C86.8561 64.7599 84.3272 62.231 81.209 62.231L69.9147 62.231C66.7964 62.231 64.2676 64.7599 64.2676 67.8781ZM64.2676 39.6425L64.2676 50.9367C64.2676 54.055 66.7964 56.5839 69.9147 56.5839L81.209 56.5839C84.3272 56.5839 86.8561 54.055 86.8561 50.9367L86.8561 39.6425C86.8561 36.5242 84.3272 33.9953 81.209 33.9953L69.9147 33.9953C66.7964 33.9953 64.2676 36.5242 64.2676 39.6425Z" fill="white"/>
</svg>
