<svg xmlns="http://www.w3.org/2000/svg" viewBox="0 0 1619.71 881.62"><defs><style>.cls-1{fill:#9e9cff;}.cls-2{fill:#7d69b3;}.cls-3{fill:#c8d4de;}.cls-4{fill:#ffe2b5;}.cls-5{fill:#5997ff;}.cls-6{fill:#fff;}.cls-7{fill:#ffe3b8;}.cls-8{fill:#4f86e3;}.cls-9{fill:#4778cc;}.cls-10{stroke:#000;stroke-width:0.5px;}.cls-10,.cls-16,.cls-17{stroke-miterlimit:10;}.cls-11{fill:#a3a3a3;}.cls-12{fill:#666;}.cls-13{fill:#d4d4d4;}.cls-14{fill:#ccc;}.cls-15{fill:#fcbe00;}.cls-16,.cls-17{fill:none;stroke-linecap:round;stroke-width:5px;}.cls-16{stroke:#ff6bcb;stroke-dasharray:31 12;}.cls-17{stroke:#9f94ff;stroke-dasharray:39 12;}.cls-18{fill:#ff336e;}</style></defs><g id="Layer_2" data-name="Layer 2"><path class="cls-1" d="M240.11,809.61s67.46,194.54,189.58,109.74c144-100,312-29.36,401-128.21s87.69-259.28-9-292.8-110.11,41.33-210.1-11.26S635.21,175.52,540,148.22s-264-30.6-253.93,145.11S280.77,435.77,202.51,487C94,558,122.31,691,240.11,809.61Z" transform="translate(-134.66 -81.14)"/><path class="cls-2" d="M613.18,704s40.71,17.83-92.55,27.75-125.81-65-137.63-95.1-139.81-33.83-67.5-86.4c54.14-39.36,36-82.8,24.75-165.37s95.66-79.72,115.88-28.2,50.87,279.87,145,258.34S613.18,704,613.18,704Z" transform="translate(-134.66 -81.14)"/><path class="cls-1" d="M1688.36,461.51s110-45.65,46-95.32c-60.33-46.77-101.38-17.28-173.25-1.42S1276,228.65,1230,340c-28.14,68.19-95.91,25.39-85.15,80.1,7.1,36,73.22,66.82,158.37,88,49.85,12.37,114.75-1.55,169.62,3.34,83.36,7.43,154.75,28.2,203.08,13.26C1747.94,502.43,1688.36,461.51,1688.36,461.51Z" transform="translate(-134.66 -81.14)"/><path class="cls-2" d="M1651.53,430.82s22.77-23-28-34.85-66.72-1-114.47,4.1-28.68-11.55-81.23-31.13c-74.43-27.73-186.83,10.09-167.26,37.68,65.07,91.72,337,69.07,356.58,50.38S1651.53,430.82,1651.53,430.82Z" transform="translate(-134.66 -81.14)"/><path class="cls-3" d="M585.3,495.55c-.18.24-16.34,10,.32,16.05s8.67,5.55,55.71,6.46,93.55.72,88.78-6.56S594.79,483.11,585.3,495.55Z" transform="translate(-134.66 -81.14)"/></g><g id="Layer_1" data-name="Layer 1"><path d="M390.55,542.72s-6.28,49.19,7.53,80.66S429.88,657,429.88,657s82.56-95.51,141.52-88.16c0,0,8.4-25.43,4.89-45.21s-127-24.53-127-24.53l-58.75,43.67" transform="translate(-134.66 -81.14)"/><path class="cls-4" d="M329,470.35s-25.17,28.86-25.26,43.86,11.87,22.07,32.73,45.19c14.83,16.43,52.68,55.31,52.68,55.31l18.05-9.89s-37.61-65.23-54.51-82.33S370.9,483.6,370.9,483.6Z" transform="translate(-134.66 -81.14)"/><path class="cls-4" d="M675.77,899.6l1.82,14.63s41.36,13,35.47-13.12c-1.48-6.56-11.32-24.4-11.32-24.4Z" transform="translate(-134.66 -81.14)"/><path class="cls-4" d="M804.24,760.11l7.49,9.75s59.32-5,21.72-26.83c-4.2-2.43-18.29-6.57-18.29-6.57Z" transform="translate(-134.66 -81.14)"/><path class="cls-5" d="M657.79,552.76S778.84,698,822.33,737.33a73,73,0,0,1-5.21,16c-5.73,11.67-13.73,8.89-13.73,8.89L696,698,609.24,595.09Z" transform="translate(-134.66 -81.14)"/><path class="cls-4" d="M580,468.83l13.82,30.09s6,9,19.94,11.11,98,2.58,98,2.58l3.15-25S631.85,493.14,610,460,580,468.83,580,468.83Z" transform="translate(-134.66 -81.14)"/><polygon class="cls-4" points="341.88 226.8 340.46 270.06 391.88 284.87 383.58 241.77 341.88 226.8"/><path class="cls-4" d="M737.5,468.6l7.52-.11a12,12,0,0,1,6.88,2.05h0a12,12,0,0,0,12.13.74l21.7-11.06a12,12,0,0,1,16.92,7.31l1.35,4.64a12,12,0,0,1-3.23,12l-21.16,20.14a11.94,11.94,0,0,1-7.07,3.24l-20.67,2-16.22,1.11a12,12,0,0,0-3.19.66l-20.65,1c-2,.71.2-1.73-1.87-2.12L704.82,512c-3.8-.7-6.43.81-8.07-2.69l-.22-.48a12,12,0,0,1,5.2-15.62l.54-.29a12.26,12.26,0,0,0,2.6-1.87l9.45-9a12.64,12.64,0,0,1,1.56-1.26L731,470.64A11.94,11.94,0,0,1,737.5,468.6Z" transform="translate(-134.66 -81.14)"/><path d="M745.59,472.36l44.93-36.14c1.76-1.41,3.9-1.7,5.3-.72L818.08,451c2,1.42,1.71,4.88-.68,7.15l-45.08,43c-2,1.91-4.68,2.24-6.14.77l-22.11-22.43C742.36,477.81,743.09,474.38,745.59,472.36Z" transform="translate(-134.66 -81.14)"/><path class="cls-6" d="M758.41,465.16l29.83-23.67c2.39-1.89,5.34-2.24,7.3-.85l13.73,9.67c2.85,2,2.49,6.75-.74,9.82l-29.61,28.06c-2.7,2.57-6.41,2.95-8.47.88L756.5,475C754.09,472.57,755,467.86,758.41,465.16Z" transform="translate(-134.66 -81.14)"/><path class="cls-7" d="M760.61,464.79l6.7,2.53a3.26,3.26,0,0,1,2,2.38h0a3.25,3.25,0,0,1-2.79,3.88l-16.21-.87c-.12,0-6.21,3.62-6.33,3.65l-6.47,1.54a3.24,3.24,0,0,1-3.81-4.24l1.34-3.78a3.2,3.2,0,0,1,1.39-1.7L748,461.31a3.24,3.24,0,0,1,2.81-.25Z" transform="translate(-134.66 -81.14)"/><path class="cls-4" d="M437.79,277.61S391.18,185,475.49,172.76s102,116.54,82.58,139.84S507.37,355.82,437.79,277.61Z" transform="translate(-134.66 -81.14)"/><path d="M481.15,228.38a74,74,0,0,0,49-11c24.09-15.53,29.68-24.62,31.4-41.59,4.51-44.51-48-57.07-75.86-37s-61,13.9-70.93,54.39.55,57.12,21.76,57.28S459.49,229.8,481.15,228.38Z" transform="translate(-134.66 -81.14)"/><path d="M425,180s32.09-64.34,53.29-51.94S465.2,183.63,425,180Z" transform="translate(-134.66 -81.14)"/><path d="M428.14,189.31s-14.7,2.57-22.92,16.36-9,45.88,23.36,45.83S428.14,189.31,428.14,189.31Z" transform="translate(-134.66 -81.14)"/><path d="M506.37,241c-3.07-2.4-18.19,3.55-15.56,8.72S513.12,246.3,506.37,241Z" transform="translate(-134.66 -81.14)"/><path d="M544,226c-3.18-2.27-15,3-14.27,7.87S551,231,544,226Z" transform="translate(-134.66 -81.14)"/><circle cx="374.03" cy="181.53" r="4.09"/><circle cx="408.29" cy="165.89" r="4.09"/><path d="M532.07,264.05l5.22,11.51.4-1.54-7.7,3.67c-1.31.63-.17,2.57,1.13,1.95l7.71-3.68a1.14,1.14,0,0,0,.4-1.54L534,262.91a1.13,1.13,0,0,0-1.54-.4,1.15,1.15,0,0,0-.4,1.54Z" transform="translate(-134.66 -81.14)"/><path class="cls-7" d="M442,288.05s-22.33,2.44-14.41,20.3,45.56,19.34,47.26,4.95S442,288.05,442,288.05Z" transform="translate(-134.66 -81.14)"/><path d="M449.92,242.35l14.28,62s-58.74-27.09-47.75-63.1S449.92,242.35,449.92,242.35Z" transform="translate(-134.66 -81.14)"/><path d="M549.42,282.62c-5.27,7.93-14.35,14.57-24.11,14.77a25.29,25.29,0,0,1-12.65-3.25c-1.27-.7-2.4,1.25-1.13,1.94a26.83,26.83,0,0,0,22.6,1.82,37,37,0,0,0,14.27-10.33,36.42,36.42,0,0,0,3-3.82c.81-1.21-1.14-2.34-1.94-1.13Z" transform="translate(-134.66 -81.14)"/><path d="M438.64,302.15c6.63-1.9,15.54-1,17.82,6.69a1.12,1.12,0,0,0,2.17-.59c-1.54-5.17-5.86-8.31-11.09-9a23.64,23.64,0,0,0-9.5.73,1.13,1.13,0,0,0,.6,2.17Z" transform="translate(-134.66 -81.14)"/><path d="M477.2,314.48s27.65,16.36,43.21,18.32c0,0-13,18.41-27.9,5.21S477.2,314.48,477.2,314.48Z" transform="translate(-134.66 -81.14)"/><path d="M361.41,400.83S414.13,346,475.11,351.2,553.43,380,605.24,429.86Z" transform="translate(-134.66 -81.14)"/><path class="cls-4" d="M464.16,350.89s37.41,39.82,60.76,35.49,18.6-12.63,18.6-12.63S519.93,350.66,464.16,350.89Z" transform="translate(-134.66 -81.14)"/><path class="cls-8" d="M616.51,599.8s42.42-14.9,53.57,42.38S712.6,887.63,712.6,887.63s-4.5,8.28-15.79,12.59a95.62,95.62,0,0,1-22.27,5.35s-29.31-133.61-51.63-161c-10.12-12.42-28.41-36.4-38.12-62-3-7.95,5.69-19.44,4.83-27.41-1.41-13-10.18-22.2-2.43-33.2C593.21,613.37,602.65,605.8,616.51,599.8Z" transform="translate(-134.66 -81.14)"/><path d="M361.41,400.83,316,467.3s25.11,24.08,57.82,27l25.24-34.95-9.26,84.39,186.5-20.17L560.2,450.82l16.35,29.51s43.31-2.25,56.47-16.06l-31.6-38.09Z" transform="translate(-134.66 -81.14)"/><path class="cls-9" d="M516.05,687.32l68.23-8.48c1.38-.18-.69-5.05,3.86-13.79,2.49-4.78,4.77-13.8,4.84-25.14.08-14.1,13.95-24.5,27.22-36.84,13.61-12.66,2-25.84-3.24-30.68a3,3,0,0,0-4.2.19L513.49,682.41A3,3,0,0,0,516.05,687.32Z" transform="translate(-134.66 -81.14)"/><path class="cls-4" d="M407.8,604s12.13,28.5,7.76,40-18.84,32.88-18.84,32.88-20.12,7-24.42,5.59.11-18.46.11-18.46l10.21-27.37,3.26-28Z" transform="translate(-134.66 -81.14)"/><path class="cls-5" d="M418.91,650.62s10,53.94,71,50.5c29.34-1.66,70.47-34.41,99.15-81.23,25.58-41.76,69.07-11.59,69.07-11.59s17.46-59.6-11.44-62S532.74,531.8,418.91,650.62Z" transform="translate(-134.66 -81.14)"/><path d="M673.57,921.59s-6.09,22,20.64,26.26,58.67,16.46,76.52,14.75c21.29-2,39.23-5,31.11-24.85s-91-42.78-91-42.78,12,30.21-34.61,14.47Z" transform="translate(-134.66 -81.14)"/><path d="M814.51,780.62S819.79,801,843,792.07s54.3-13.86,67.73-23.42c16-11.41,29-22,13.37-34.1S832,742.29,832,742.29,855.4,760.85,811,769.73Z" transform="translate(-134.66 -81.14)"/><text x="-134.66" y="-81.14"/><path d="M400.57,460.3l18.53-17.44,2.59-2.43c.7-.67-.36-1.72-1.06-1.06l-18.54,17.44-2.58,2.43c-.71.67.36,1.73,1.06,1.06Z" transform="translate(-134.66 -81.14)"/><path class="cls-10" d="M585.07,480s28.32-4.26,35.55-7.82c8.08-4-26.85,20-31.06,15.12A32.23,32.23,0,0,1,585.07,480Z" transform="translate(-134.66 -81.14)"/><path class="cls-10" d="M359.89,492.11S334.07,481.93,326.82,476c-6.68-5.42,19.6,22.43,25.6,22.21S359.89,492.11,359.89,492.11Z" transform="translate(-134.66 -81.14)"/><path class="cls-10" d="M590.51,618.61s-23.91,41.39-33.21,51c-11.8,12.24-28.69,16.09-28.69,16.09s48.57-45.92,61.9-67.13" transform="translate(-134.66 -81.14)"/><path d="M709.43,891.79s-6.06,15.85-21,14.92-11.87-1-11.87-1S700.74,901.46,709.43,891.79Z" transform="translate(-134.66 -81.14)"/><path d="M822.25,738.67c-4.83,16.75-15.73,24.06-15.73,24.06s3.28,4.73,9.11-1.44c5.36-5.68,5.85-13.66,5.85-13.66" transform="translate(-134.66 -81.14)"/></g><g id="Layer_3" data-name="Layer 3"><path class="cls-11" d="M1356,85.45s6.8,5.27,6.57,11.26l62,52.42a58.07,58.07,0,0,0-7.61-10.3C1412.14,133.64,1356,85.45,1356,85.45Z" transform="translate(-134.66 -81.14)"/><polygon class="cls-12" points="1333.33 296.71 1393.4 298.74 1386.12 358.63 1326.05 356.61 1333.33 296.71"/><polygon class="cls-13" points="1327.2 296.51 1387.27 298.53 1379.99 358.43 1319.92 356.4 1327.2 296.51"/><path class="cls-11" d="M1311.38,419s8.62,3.33,13.19-11.5l70.82,2.72s-2.68,10.9-10.52,11.6Z" transform="translate(-134.66 -81.14)"/><path class="cls-14" d="M1302.29,421.64l-97.58-3.75A18.6,18.6,0,0,1,1187,397l37.84-299.56A18.6,18.6,0,0,1,1244,81.15l97.58,3.75a18.6,18.6,0,0,1,17.74,20.92l-37.84,299.56A18.6,18.6,0,0,1,1302.29,421.64Z" transform="translate(-134.66 -81.14)"/><polygon class="cls-11" points="1261.98 326.11 1190.03 323.35 1227.57 17.57 1290.78 71.03 1261.98 326.11"/><path class="cls-12" d="M1686.61,397.49l-367-12.37c-10-.34-17.17-8.87-15.95-19.06l26.65-222.25c1.22-10.19,10.34-18.17,20.36-17.84l367,12.38c10,.33,17.16,8.87,15.94,19.05L1707,379.66C1705.75,389.85,1696.63,397.83,1686.61,397.49Z" transform="translate(-134.66 -81.14)"/><circle class="cls-6" cx="1126.94" cy="233.36" r="13.5"/><path class="cls-6" d="M1239.76,124.71l9.16.06,22,.13,26.6.15,22.89.14c3.72,0,7.49.22,11.21.06h.16a1.5,1.5,0,0,0,0-3l-9.16-.06-22-.13-26.6-.16-22.89-.13c-3.72,0-7.49-.22-11.21-.07a.85.85,0,0,1-.16,0,1.5,1.5,0,0,0,0,3Z" transform="translate(-134.66 -81.14)"/><path class="cls-6" d="M1238.86,139l9.18.35,21.92.84,26.5,1,23,.88c3.7.15,7.46.51,11.15.43h.17c1.93.07,1.92-2.93,0-3l-9.18-.35-21.92-.84-26.5-1-23-.89c-3.69-.14-7.45-.5-11.15-.42h-.17c-1.93-.07-1.92,2.93,0,3Z" transform="translate(-134.66 -81.14)"/><path class="cls-6" d="M1212.79,375.17l9.15.35,22,.85,26.57,1,22.87.88c3.72.14,7.49.5,11.21.43h.16c1.93.08,1.93-2.92,0-3l-9.15-.35-22-.84-26.58-1-22.87-.88c-3.71-.14-7.49-.51-11.2-.43h-.16c-1.94-.07-1.93,2.93,0,3Z" transform="translate(-134.66 -81.14)"/><path class="cls-13" d="M1680.64,392.38l-367-12.37a16.37,16.37,0,0,1-15.95-18.71l26.5-218a20.23,20.23,0,0,1,20.36-17.48l367,12.37a16.38,16.38,0,0,1,16,18.71L1701,374.9A20.21,20.21,0,0,1,1680.64,392.38Z" transform="translate(-134.66 -81.14)"/><path class="cls-6" d="M1668.64,377.18l-346.8-11.69A11.21,11.21,0,0,1,1311,352.63l24.08-200a13.79,13.79,0,0,1,13.81-12l346.8,11.69a11.2,11.2,0,0,1,10.82,12.86l-24.07,200A13.8,13.8,0,0,1,1668.64,377.18Z" transform="translate(-134.66 -81.14)"/><path class="cls-12" d="M1381.06,428.06l233.61,7.87c2.61.09,4.46,2.66,4.12,5.73l-.09.85c-.33,3.08-2.71,5.5-5.32,5.41l-233.62-7.87c-2.61-.09-4.45-2.65-4.12-5.73l.09-.85C1376.06,430.39,1378.45,428,1381.06,428.06Z" transform="translate(-134.66 -81.14)"/><path class="cls-13" d="M1377.33,426.34,1611,434.22c2.61.09,4.45,2.7,4.11,5.84l-.09.87c-.33,3.13-2.72,5.61-5.33,5.52L1376,438.57c-2.61-.08-4.46-2.7-4.12-5.84l.09-.86C1372.34,428.73,1374.72,426.26,1377.33,426.34Z" transform="translate(-134.66 -81.14)"/><path class="cls-15" d="M781.77,458.53l-5.89,5.77a2,2,0,0,0,.91,3.29l8.61,2.05a2,2,0,0,0,2.3-2.54L785,459.28A1.94,1.94,0,0,0,781.77,458.53Z" transform="translate(-134.66 -81.14)"/><path class="cls-16" d="M823.76,440.47s23.78-43.9,187.7-21.71S1370.05,589,1345.25,684.7,1031.61,791.57,1106,646.22s384.21-75.71,453.23-117.52,41.06-175.83,41.06-175.83" transform="translate(-134.66 -81.14)"/><path class="cls-17" d="M832.43,417.17C958.45,298.8,1034.57,287,1082,302.38c32.28,10.45,42.5,30.62,78.43,43.93,75.7,28.05,161.33-12.92,225.9-56.15" transform="translate(-134.66 -81.14)"/><rect class="cls-18" x="992.7" y="239.89" width="83" height="83" rx="41.5" transform="translate(-115.29 -144.52) rotate(3.54)"/><path class="cls-15" d="M1463,221.46l-8,79.77a4.58,4.58,0,0,0,6.4,4.66l89.54-39.2a4.58,4.58,0,0,0,.2-8.3l-81.51-40.57A4.58,4.58,0,0,0,1463,221.46Z" transform="translate(-134.66 -81.14)"/><circle class="cls-6" cx="894.58" cy="210.29" r="14.17"/><rect class="cls-6" x="1037.12" y="256.7" width="7" height="36.43" transform="translate(-115.68 -144.93) rotate(3.54)"/><rect class="cls-6" x="1040.56" y="256.99" width="10.52" height="4.86" transform="translate(-116.62 -145.28) rotate(3.54)"/><rect class="cls-5" x="1052.96" y="660.29" width="79" height="79" rx="2.23" transform="translate(-89.32 -147.32) rotate(3.54)"/><rect class="cls-6" x="1063.51" y="675.05" width="58.22" height="48.62" transform="translate(-89.34 -147.33) rotate(3.54)"/><rect class="cls-5" x="1118.51" y="716.84" width="7.08" height="5.21" rx="2.04" transform="translate(-88.05 -149.11) rotate(3.54)"/><rect class="cls-5" x="1105.16" y="716.02" width="7.08" height="5.21" rx="2.04" transform="translate(-88.12 -148.29) rotate(3.54)"/><rect class="cls-5" x="1091.81" y="715.19" width="7.08" height="5.21" rx="2.04" transform="translate(-88.2 -147.46) rotate(3.54)"/><rect class="cls-5" x="1078.46" y="714.36" width="7.08" height="5.21" rx="2.04" transform="translate(-88.28 -146.64) rotate(3.54)"/><rect class="cls-5" x="1066.33" y="713.61" width="7.08" height="5.21" rx="2.04" transform="translate(-88.35 -145.89) rotate(3.54)"/><rect class="cls-5" x="1120.76" y="680.45" width="7.08" height="5.21" rx="2.04" transform="translate(-90.29 -149.32) rotate(3.54)"/><rect class="cls-5" x="1107.41" y="679.63" width="7.08" height="5.21" rx="2.04" transform="translate(-90.37 -148.49) rotate(3.54)"/><rect class="cls-5" x="1094.06" y="678.8" width="7.08" height="5.21" rx="2.04" transform="translate(-90.44 -147.67) rotate(3.54)"/><rect class="cls-5" x="1080.71" y="677.97" width="7.08" height="5.21" rx="2.04" transform="translate(-90.52 -146.85) rotate(3.54)"/><rect class="cls-5" x="1068.58" y="677.22" width="7.08" height="5.21" rx="2.04" transform="translate(-90.59 -146.1) rotate(3.54)"/><rect class="cls-5" x="1069.03" y="687.29" width="46.98" height="23.22" rx="2.62" transform="translate(-89.37 -147.32) rotate(3.54)"/><circle class="cls-15" cx="1298.39" cy="465.9" r="35"/><path class="cls-6" d="M1421,547.68l.76-12.17a3.46,3.46,0,0,1,5.36-2.67l10.17,6.74,10.17,6.74a3.46,3.46,0,0,1-.37,6l-10.93,5.43-10.92,5.44a3.46,3.46,0,0,1-5-3.31Z" transform="translate(-134.66 -81.14)"/></g></svg>