<svg width="144" height="144" viewBox="0 0 144 144" fill="none" xmlns="http://www.w3.org/2000/svg">
<g clip-path="url(#clip0_549_1068)">
<rect width="144" height="144" fill="white"/>
<rect x="24.1982" y="24" width="96.8021" height="96.8021" rx="17" fill="#0079FF"/>
<path fill-rule="evenodd" clip-rule="evenodd" d="M100.867 120.802H41.1983C31.8094 120.802 24.1982 113.191 24.1982 103.802V99.0748L33.0745 62.9165C37.1204 46.4353 39.1433 38.1947 45.5203 34.3315C51.8973 30.4683 60.1379 32.4913 76.6191 36.5371L84.0372 38.3582C100.518 42.404 108.759 44.427 112.622 50.8039C116.485 57.1809 114.462 65.4215 110.417 81.9027L100.867 120.802Z" fill="#E44CFF"/>
<path fill-rule="evenodd" clip-rule="evenodd" d="M59.6319 43.2426C62.187 43.0382 64.4241 44.9438 64.6285 47.4989L65.9545 64.0746C66.1589 66.6297 64.2533 68.8667 61.6982 69.0711C59.1431 69.2755 56.9061 67.3699 56.7017 64.8148L55.3756 48.2391C55.1712 45.684 57.0768 43.447 59.6319 43.2426ZM81.6391 44.682C84.1316 45.2802 85.6672 47.7857 85.069 50.2782L81.0909 66.8539C80.4927 69.3463 77.9872 70.882 75.4947 70.2838C73.0022 69.6856 71.4666 67.1801 72.0648 64.6876L76.043 48.1119C76.6411 45.6194 79.1466 44.0838 81.6391 44.682ZM61.9731 81.1798C61.6404 81.1373 61.0601 81.14 60.1451 81.4451C59.7041 81.5921 58.7931 82.2298 58.1818 84.2605C57.5929 86.2165 57.5286 88.8274 58.2443 91.4227C58.9514 93.9864 60.347 96.2833 62.4047 97.8694C64.4074 99.4132 67.3464 100.526 71.6474 100.257C76.0716 99.9807 78.9951 98.8195 80.9362 97.4175C82.8632 96.0257 84.1027 94.1954 84.8448 92.0918C86.4014 87.6789 85.6706 82.2521 84.2353 78.8432C83.2406 76.4808 84.3493 73.7594 86.7117 72.7647C89.0741 71.77 91.7956 72.8787 92.7903 75.2411C94.8911 80.2306 96.1 88.0882 93.5985 95.1797C92.3114 98.8283 90.0224 102.305 86.3712 104.942C82.7341 107.569 78.0298 109.159 72.2264 109.522C65.9184 109.916 60.7021 108.277 56.7377 105.221C52.8283 102.208 50.445 98.0566 49.296 93.8906C48.1558 89.7562 48.1582 85.3556 49.2934 81.5846C50.4062 77.8884 52.8766 74.0837 57.2092 72.6392C61.5325 71.1978 65.1574 71.9385 67.9163 73.7295C70.0947 75.1436 71.5468 77.1499 72.1594 77.9963C72.2285 78.0918 72.2869 78.1725 72.3345 78.2359C73.8723 80.2866 73.4564 83.1957 71.4057 84.7335C69.355 86.2713 66.4459 85.8555 64.9081 83.8048C64.8246 83.6934 64.7449 83.5865 64.6682 83.4838C63.9587 82.5327 63.5165 81.94 62.8621 81.5152C62.5809 81.3327 62.3026 81.2219 61.9731 81.1798Z" fill="white"/>
</g>
<defs>
<clipPath id="clip0_549_1068">
<rect width="144" height="144" fill="white"/>
</clipPath>
</defs>
</svg>
