<svg width="144" height="144" viewBox="0 0 144 144" fill="none" xmlns="http://www.w3.org/2000/svg">
<rect width="144" height="144" fill="white"/>
<path d="M23 68.6923C23 47.1527 23 36.383 29.6915 29.6915C36.383 23 47.1527 23 68.6923 23H76.3077C97.8473 23 108.617 23 115.309 29.6915C122 36.383 122 47.1527 122 68.6923V75.0385C122 96.578 122 107.348 115.309 114.039C108.617 120.731 97.8472 120.731 76.3077 120.731H68.6923C47.1527 120.731 36.383 120.731 29.6915 114.039C23 107.348 23 96.578 23 75.0385V68.6923Z" fill="#E44CFF"/>
<path fill-rule="evenodd" clip-rule="evenodd" d="M29.6915 29.6915C23 36.383 23 47.1527 23 68.6923V69.3211C31.601 69.8692 46.317 67.5914 59.8077 55.3654C78.1135 38.7758 106.732 43.3284 121.958 57.8672C121.774 43.3322 120.77 35.1533 115.309 29.6915C108.617 23 97.8472 23 76.3077 23H68.6923C47.1527 23 36.383 23 29.6915 29.6915Z" fill="#0077FF"/>
<path fill-rule="evenodd" clip-rule="evenodd" d="M87.0956 59.8077C89.549 59.8077 91.5379 61.7966 91.5379 64.25V103.596C91.5379 106.05 89.549 108.038 87.0956 108.038C84.6421 108.038 82.6532 106.05 82.6532 103.596V64.25C82.6532 61.7966 84.6421 59.8077 87.0956 59.8077ZM71.8648 71.2308C74.3182 71.2308 76.3071 73.2196 76.3071 75.6731V92.1731C76.3071 94.6265 74.3182 96.6154 71.8648 96.6154C69.4114 96.6154 67.4225 94.6265 67.4225 92.1731V75.6731C67.4225 73.2196 69.4114 71.2308 71.8648 71.2308ZM102.326 71.2308C104.78 71.2308 106.769 73.2196 106.769 75.6731V92.1731C106.769 94.6265 104.78 96.6154 102.326 96.6154C99.8729 96.6154 97.884 94.6265 97.884 92.1731V75.6731C97.884 73.2196 99.8729 71.2308 102.326 71.2308ZM41.4032 76.3077C43.8567 76.3077 45.8456 78.2966 45.8456 80.75V87.0961C45.8456 89.5496 43.8567 91.5384 41.4032 91.5384C38.9498 91.5384 36.9609 89.5496 36.9609 87.0961V80.75C36.9609 78.2966 38.9498 76.3077 41.4032 76.3077ZM56.634 76.3077C59.0874 76.3077 61.0763 78.2966 61.0763 80.75V87.0961C61.0763 89.5496 59.0874 91.5384 56.634 91.5384C54.1806 91.5384 52.1917 89.5496 52.1917 87.0961V80.75C52.1917 78.2966 54.1806 76.3077 56.634 76.3077Z" fill="white"/>
</svg>
